# xmcd
#
# Track frame offsets:
#	150
#	15812
#	29685
#	41545
#	59325
#	75575
#	92880
#	106310
#	122200
#	134472
#
# Disc length: 1991 seconds
#
# Revision: 2
# Processed by: cddbd v1.5.2PL0 Copyright (c) Steve Scherf et al.
# Submitted via: EasyCDDAExtractor 6.5.0.1
#
DISCID=7c07c50a
DTITLE=Gene Watson - In Other Words
DYEAR=1992
DGENRE=Country
TTITLE0=One And One And One
TTITLE1=Whose Fool I Wanna Be
TTITLE2=I Don't Think She'd Really Mind At All
TTITLE3=Old Porch Swing
TTITLE4=Winds Of Change
TTITLE5=Class Reunion
TTITLE6=Booked Tonight In Heaven
TTITLE7=Mr. Candyman
TTITLE8=She's No Lady
TTITLE9=In Other Words
EXTD=
EXTT0=
EXTT1=
EXTT2=
EXTT3=
EXTT4=
EXTT5=
EXTT6=
EXTT7=
EXTT8=
EXTT9=
PLAYORDER=
